Coordinates
version=1
nRows=24
nColumns=24
inDegrees=yes

Units are S.I. units (second, meters, Newtons, ...)
Angles are in degrees.

endheader
time	pelvis_tilt	pelvis_list	pelvis_rotation	pelvis_tx	pelvis_ty	pelvis_tz	hip_flexion_r	hip_adduction_r	hip_rotation_r	knee_angle_r	ankle_angle_r	subtalar_angle_r	mtp_angle_r	hip_flexion_l	hip_adduction_l	hip_rotation_l	knee_angle_l	ankle_angle_l	subtalar_angle_l	mtp_angle_l	lumbar_extension	lumbar_bending	lumbar_rotation
      5.92000000	     -3.42215587	      0.12556262	     -2.12853524	      1.30505805	      0.67301066	     -0.17927349	     -0.38233107	      3.61232981	      8.61331861	     -9.86689739	     18.34245067	    -13.84710046	      0.00000000	     30.84711085	     -1.04087893	     -3.86221428	    -32.16335596	      1.79166449	    -24.25708216	      0.00000000	    -13.03438202	     -1.43860729	     10.85694212
      5.93000000	     -3.12170219	     -0.50180441	     -2.99281183	      1.31538214	      0.67162122	     -0.17844940	     -1.78176792	      4.18633144	      8.84588069	     -9.62063465	     19.05417453	    -13.26453567	      0.00000000	     29.90917940	     -2.18406526	     -3.95225959	    -26.68004840	      0.95656478	    -23.49350574	      0.00000000	    -13.41070741	     -0.96283029	     11.64626805
      5.94000000	     -2.74925316	     -1.26801847	     -3.84716515	      1.32592610	      0.67007508	     -0.17767978	     -3.32672669	      4.85886894	      9.07850815	     -9.34134295	     19.71426705	    -12.68807044	      0.00000000	     28.77784346	     -3.43038585	     -3.90630099	    -21.19059790	      0.26007122	    -22.09776839	      0.00000000	    -13.87383129	     -0.36786154	     12.48502226
      5.95000000	     -2.25592056	     -2.09342198	     -4.59710136	      1.33668874	      0.66845818	     -0.17707513	     -5.02611886	      5.52751383	      8.96262592	     -9.09196736	     20.48275239	    -11.86249527	      0.00000000	     27.48987676	     -4.67818960	     -3.78292484	    -15.88933908	     -0.17504262	    -19.85754754	      0.00000000	    -14.50106574	      0.27987182	     13.18096354
      5.96000000	     -1.75927717	     -2.97626295	     -5.33119272	      1.34769455	      0.66671256	     -0.17658400	     -6.82276974	      6.19719543	      8.92829565	     -8.76497077	     21.12444627	    -11.02773708	      0.00000000	     26.17682161	     -5.94137465	     -3.38203102	    -10.92325307	     -0.18904090	    -17.44546770	      0.00000000	    -15.12593267	      0.96670515	     13.94663213
      5.97000000	     -1.37540938	     -3.85910621	     -5.97349030	      1.35886093	      0.66480462	     -0.17626167	     -8.46090170	      6.81739777	      8.47057187	     -8.57317063	     21.97794707	     -9.63217574	      0.00000000	     25.15437393	     -7.21741663	     -3.34108033	     -6.67705677	      0.47677425	    -13.98108714	      0.00000000	    -15.62947681	      1.66746503	     14.57606438
      5.98000000	     -0.97701820	     -4.61581781	     -6.51352380	      1.37024325	      0.66288963	     -0.17616196	    -10.15735505	      7.25711749	      8.10263136	     -8.34467887	     22.60956059	     -8.51295097	      0.00000000	     24.16047898	     -8.27992672	     -2.96622375	     -2.98175069	      1.25208374	    -11.20417382	      0.00000000	    -16.12560057	      2.22543982	     15.12657071
      5.99000000	     -0.65854249	     -5.21624660	     -6.96452670	      1.38179684	      0.66093495	     -0.17627105	    -11.73828547	      7.49993134	      7.73808753	     -8.19046556	     23.13442625	     -7.40475914	      0.00000000	     23.37687606	     -9.13710463	     -2.60538997	     -0.02295623	      2.23465802	     -8.83761318	      0.00000000	    -16.49749454	      2.63000989	     15.54875174
      6.00000000	     -0.46255603	     -5.62536525	     -7.36541696	      1.39350066	      0.65892839	     -0.17656168	    -13.11332125	      7.52158178	      7.46213043	     -8.17577173	     23.55730374	     -6.36466598	      0.00000000	     22.87576521	     -9.75986223	     -2.38811654	      2.09351862	      3.35822282	     -6.97923633	      0.00000000	    -16.68505664	      2.84875363	     15.88236535
      6.01000000	     -0.34169068	     -5.81747338	     -7.73212241	      1.40537375	      0.65692324	     -0.17701584	    -14.33038186	      7.30186813	      7.40269204	     -8.28618761	     23.77703041	     -5.59940608	      0.00000000	     22.59043483	    -10.11026764	     -2.27275519	      3.35417641	      4.34737382	     -5.97821568	      0.00000000	    -16.73263288	      2.84834685	     16.10741228
      6.02000000	     -0.43576739	     -5.91320037	     -8.11844592	      1.41737014	      0.65481888	     -0.17758196	    -15.23609124	      6.99893151	      7.67948212	     -8.55659272	     23.81574710	     -5.17511404	      0.00000000	     22.67450517	    -10.34106992	     -2.24389132	      3.72645058	      4.98341537	     -5.88996145	      0.00000000	    -16.49987627	      2.80095394	     16.33406766
      6.03000000	     -0.56051509	     -5.77111925	     -8.52314811	      1.42957673	      0.65281871	     -0.17824457	    -15.97901373	      6.43969550	      7.99270104	     -9.02353208	     23.73468840	     -4.77220025	      0.00000000	     22.93533313	    -10.29639439	     -2.59877722	      3.22144211	      5.26783898	     -6.21890965	      0.00000000	    -16.17439163	      2.48144377	     16.49897206
      6.04000000	     -0.76318445	     -5.49426305	     -8.93246564	      1.44200560	      0.65089529	     -0.17901130	    -16.56774005	      5.75129892	      8.33678202	     -9.58974936	     23.57019848	     -4.43565251	      0.00000000	     23.42449305	    -10.09348091	     -3.26790546	      1.92876264	      4.96122309	     -7.05711107	      0.00000000	    -15.70915500	      2.04425709	     16.65334274
      6.05000000	     -1.14527370	     -5.14686523	     -9.32579994	      1.45462908	      0.64895771	     -0.17989381	    -16.90169728	      5.04084301	      8.74008475	    -10.26543911	     23.18852706	     -4.22098264	      0.00000000	     24.10498508	     -9.81422655	     -3.35334259	      0.24239193	      3.35392329	     -9.64921832	      0.00000000	    -14.99978713	      1.58994408	     16.75028182
      6.06000000	     -1.45294667	     -4.57987893	     -9.59168245	      1.46744205	      0.64727524	     -0.18095013	    -17.27224452	      4.14396588	      9.00496304	    -10.92446746	     22.48706306	     -4.43306678	      0.00000000	     24.81617856	     -9.24799082	     -3.46445610	     -1.81057817	      0.65330716	    -12.79419606	      0.00000000	    -14.33856567	      0.88998556	     16.70935845
      6.07000000	     -1.85735487	     -3.84841466	     -9.73746500	      1.48034701	      0.64576764	     -0.18214309	    -17.49379813	      3.15173738	      9.12514636	    -11.59302483	     21.52490470	     -4.68793976	      0.00000000	     25.77360057	     -8.49745596	     -3.59056510	     -4.16951794	     -2.76784053	    -16.00911096	      0.00000000	    -13.54608538	      0.02995328	     16.54739602
      6.08000000	     -2.26471243	     -2.92562752	     -9.71232705	      1.49329185	      0.64454078	     -0.18346305	    -17.66035616	      2.04259398	      9.07167761	    -12.27405341	     20.29486219	     -4.99711462	      0.00000000	     26.89064920	     -7.52345311	     -3.78561319	     -6.78182510	     -6.25356250	    -18.76811552	      0.00000000	    -12.74982165	     -1.05468501	     16.20595508
      6.09000000	     -2.54068770	     -1.81807122	     -9.42556290	      1.50626266	      0.64369500	     -0.18497006	    -17.88302024	      0.82499916	      8.63008982	    -13.03266212	     18.70401268	     -5.42271458	      0.00000000	     28.00565636	     -6.27080849	     -3.94126602	     -9.62083302	     -8.91323233	    -20.69733256	      0.00000000	    -12.14150372	     -2.38851785	     15.64854639
      6.10000000	     -2.75156034	     -0.64529350	     -8.92747242	      1.51922148	      0.64318018	     -0.18658856	    -18.06182145	     -0.36187909	      7.95974719	    -13.98706930	     16.74882279	     -5.94301631	      0.00000000	     29.11008566	     -4.87951148	     -4.09665206	    -12.63804330	    -10.13145962	    -21.56912162	      0.00000000	    -11.68010480	     -3.83223648	     14.96259469
      6.11000000	     -2.90771975	      0.54436195	     -8.28496346	      1.53218007	      0.64300056	     -0.18830217	    -18.10269382	     -1.49821392	      7.01299562	    -15.30383672	     14.57065766	     -6.28953706	      0.00000000	     30.03501505	     -3.37717118	     -4.13279310	    -15.56650761	    -10.13572515	    -21.93661517	      0.00000000	    -11.35922931	     -5.33005576	     14.27301468
      6.12000000	     -3.09290569	      1.55717454	     -7.60995672	      1.54502315	      0.64315727	     -0.18993979	    -17.94576195	     -2.32391566	      6.63601316	    -16.92945596	     11.28346681	     -7.77381996	      0.00000000	     30.72646840	     -1.99463753	     -4.03248182	    -18.20389316	     -9.04545540	    -22.01842168	      0.00000000	    -11.11569653	     -6.65237020	     13.59218558
      6.13000000	     -3.30169550	      2.48217150	     -6.95189710	      1.55774547	      0.64370630	     -0.19155064	    -17.41721728	     -3.01644612	      6.27940035	    -19.11418095	      7.63391606	     -9.18751451	      0.00000000	     31.07139349	     -0.63992310	     -3.82293051	    -20.31611323	     -7.40788874	    -22.00420164	      0.00000000	    -10.91139532	     -7.89019164	     13.04535728
      6.14000000	     -3.57426928	      3.25385943	     -6.37408368	      1.57021540	      0.64466797	     -0.19304968	    -16.43690065	     -3.49868402	      6.20655634	    -21.85717509	      3.47613763	    -10.82415617	      0.00000000	     31.07616125	      0.58245830	     -3.50678870	    -21.79574018	     -5.57990677	    -21.99179657	      0.00000000	    -10.70427160	     -8.95849003	     12.62101610
      6.15000000	     -3.91437447	      3.88015460	     -5.90188457	      1.58233744	      0.64603067	     -0.19439809	    -14.96444466	     -3.78709291	      6.38568004	    -25.15486238	     -0.89777084	    -12.51523720	      0.00000000	     30.78025493	      1.63631899	     -3.17302029	    -22.64112696	     -3.80686221	    -21.93739833	      0.00000000	    -10.47816436	     -9.85775489	     12.28092807
